<svg width="12" height="8" viewBox="0 0 12 8" fill="none" xmlns="http://www.w3.org/2000/svg">
<path d="M11.7508 0.295765C11.6711 0.202047 11.5763 0.127661 11.4719 0.076898C11.3674 0.026135 11.2554 0 11.1423 0C11.0291 0 10.9171 0.026135 10.8127 0.076898C10.7082 0.127661 10.6134 0.202047 10.5338 0.295765L6.6085 4.87525C6.52883 4.96896 6.43404 5.04335 6.3296 5.09411C6.22516 5.14488 6.11314 5.17101 6 5.17101C5.88686 5.17101 5.77484 5.14488 5.6704 5.09411C5.56596 5.04335 5.47117 4.96896 5.3915 4.87525L1.46623 0.295765C1.38655 0.202047 1.29176 0.127661 1.18732 0.076898C1.08289 0.026135 0.970865 0 0.857725 0C0.744585 0 0.632564 0.026135 0.528125 0.076898C0.423686 0.127661 0.328896 0.202047 0.249222 0.295765C0.0895969 0.483106 0 0.736529 0 1.00068C0 1.26484 0.0895969 1.51826 0.249222 1.70561L4.18306 6.29509C4.66515 6.85682 5.31865 7.17235 6 7.17235C6.68135 7.17235 7.33485 6.85682 7.81694 6.29509L11.7508 1.70561C11.9104 1.51826 12 1.26484 12 1.00068C12 0.736529 11.9104 0.483106 11.7508 0.295765Z" fill="#40396B"/>
</svg>
