<svg width="21" height="20" viewBox="0 0 21 20" fill="none" xmlns="http://www.w3.org/2000/svg">
<g clip-path="url(#clip0_1162_4600)">
<path d="M20.3298 13.5L18.1632 5.69084C17.7005 4.02036 16.6924 2.55263 15.2993 1.52125C13.9061 0.489872 12.208 -0.0458855 10.4752 -0.000752424C8.74246 0.0443806 7.07456 0.66781 5.737 1.77031C4.39944 2.87282 3.46909 4.39104 3.09401 6.08334L1.41818 13.625C1.33709 13.9904 1.33907 14.3693 1.42397 14.7338C1.50887 15.0983 1.67452 15.4391 1.90871 15.731C2.1429 16.023 2.43964 16.2586 2.77705 16.4205C3.11446 16.5825 3.48392 16.6666 3.85818 16.6667H6.86401C7.05528 17.6086 7.56629 18.4554 8.31047 19.0637C9.05464 19.6719 9.98622 20.0042 10.9473 20.0042C11.9085 20.0042 12.8401 19.6719 13.5842 19.0637C14.3284 18.4554 14.8394 17.6086 15.0307 16.6667H17.9223C18.3074 16.6665 18.6873 16.5774 19.0323 16.4062C19.3772 16.2351 19.678 15.9866 19.9111 15.6801C20.1442 15.3735 20.3034 15.0173 20.3762 14.6392C20.4489 14.261 20.4325 13.8712 20.3298 13.5ZM10.9473 18.3333C10.4321 18.3312 9.93016 18.1699 9.5101 17.8716C9.09004 17.5733 8.77242 17.1524 8.60068 16.6667H13.294C13.1223 17.1524 12.8047 17.5733 12.3846 17.8716C11.9645 18.1699 11.4626 18.3312 10.9473 18.3333ZM18.5848 14.6708C18.5071 14.7739 18.4063 14.8574 18.2906 14.9145C18.1748 14.9717 18.0473 15.001 17.9182 15H3.85818C3.7334 15 3.61021 14.9719 3.49772 14.918C3.38523 14.864 3.28629 14.7854 3.20823 14.688C3.13016 14.5907 3.07495 14.4771 3.04667 14.3555C3.01839 14.234 3.01777 14.1077 3.04485 13.9858L4.72068 6.44418C5.01598 5.11602 5.74677 3.92468 6.79689 3.05955C7.84702 2.19442 9.1562 1.70515 10.5163 1.66952C11.8764 1.63389 13.2095 2.05394 14.3034 2.8629C15.3974 3.67186 16.1896 4.8233 16.554 6.13418L18.7207 13.9433C18.7561 14.0668 18.7622 14.1969 18.7386 14.3231C18.715 14.4494 18.6624 14.5684 18.5848 14.6708Z" fill="#40396B"/>
</g>
<defs>
<clipPath id="clip0_1162_4600">
<rect width="20" height="20" fill="white" transform="translate(0.947357)"/>
</clipPath>
</defs>
</svg>
