<svg width="12" height="14" viewBox="0 0 12 14" fill="none" xmlns="http://www.w3.org/2000/svg">
<path d="M11.8334 2.33333H8.91669V1.16667C8.91669 0.857247 8.79377 0.560501 8.57498 0.341709C8.35619 0.122916 8.05944 0 7.75002 0L4.25002 0C3.9406 0 3.64386 0.122916 3.42506 0.341709C3.20627 0.560501 3.08335 0.857247 3.08335 1.16667V2.33333H0.166687V3.5H1.33335V12.25C1.33335 12.7141 1.51773 13.1592 1.84592 13.4874C2.17411 13.8156 2.61922 14 3.08335 14H8.91669C9.38082 14 9.82594 13.8156 10.1541 13.4874C10.4823 13.1592 10.6667 12.7141 10.6667 12.25V3.5H11.8334V2.33333ZM4.25002 1.16667H7.75002V2.33333H4.25002V1.16667ZM9.50002 12.25C9.50002 12.4047 9.43856 12.5531 9.32917 12.6625C9.21977 12.7719 9.0714 12.8333 8.91669 12.8333H3.08335C2.92864 12.8333 2.78027 12.7719 2.67088 12.6625C2.56148 12.5531 2.50002 12.4047 2.50002 12.25V3.5H9.50002V12.25Z" fill="#40396B"/>
<path d="M5.41667 5.83331H4.25V10.5H5.41667V5.83331Z" fill="#40396B"/>
<path d="M7.75004 5.83331H6.58337V10.5H7.75004V5.83331Z" fill="#40396B"/>
</svg>
