<svg width="14" height="14" viewBox="0 0 14 14" fill="none" xmlns="http://www.w3.org/2000/svg">
<g clip-path="url(#clip0_1226_340)">
<path d="M9.50717 4.83467L10.3262 5.66592L6.94692 8.995C6.72117 9.22075 6.42425 9.33333 6.12617 9.33333C5.82808 9.33333 5.52825 9.21958 5.30017 8.99208L3.67733 7.41942L4.48992 6.58117L6.11917 8.16025L9.50717 4.83467ZM14 7C14 10.8599 10.8599 14 7 14C3.14008 14 0 10.8599 0 7C0 3.14008 3.14008 0 7 0C10.8599 0 14 3.14008 14 7ZM12.8333 7C12.8333 3.7835 10.2165 1.16667 7 1.16667C3.7835 1.16667 1.16667 3.7835 1.16667 7C1.16667 10.2165 3.7835 12.8333 7 12.8333C10.2165 12.8333 12.8333 10.2165 12.8333 7Z" fill="#40396B"/>
</g>
<defs>
<clipPath id="clip0_1226_340">
<rect width="14" height="14" fill="white"/>
</clipPath>
</defs>
</svg>
