<svg width="16" height="14" viewBox="0 0 16 14" fill="none" xmlns="http://www.w3.org/2000/svg">
<g clip-path="url(#clip0_1181_285)">
<path d="M7.93748 4.66669C7.44715 4.66669 6.96783 4.80353 6.56013 5.05992C6.15243 5.31631 5.83467 5.68073 5.64703 6.10709C5.45939 6.53345 5.41029 7.00261 5.50595 7.45523C5.60161 7.90785 5.83773 8.32361 6.18445 8.64994C6.53116 8.97626 6.97291 9.19849 7.45382 9.28852C7.93473 9.37855 8.43321 9.33234 8.88622 9.15574C9.33923 8.97914 9.72642 8.68007 9.99883 8.29635C10.2712 7.91264 10.4166 7.46151 10.4166 7.00002C10.4166 6.38118 10.1555 5.78769 9.69052 5.3501C9.22558 4.91252 8.595 4.66669 7.93748 4.66669ZM7.93748 8.16669C7.69232 8.16669 7.45265 8.09826 7.24881 7.97007C7.04496 7.84187 6.88608 7.65967 6.79226 7.44648C6.69843 7.2333 6.67389 6.99873 6.72172 6.77242C6.76955 6.5461 6.8876 6.33822 7.06096 6.17506C7.23432 6.0119 7.45519 5.90079 7.69565 5.85577C7.93611 5.81075 8.18535 5.83386 8.41185 5.92216C8.63835 6.01046 8.83195 6.16 8.96816 6.35186C9.10436 6.54371 9.17706 6.76928 9.17706 7.00002C9.17706 7.30944 9.04647 7.60619 8.814 7.82498C8.58153 8.04377 8.26624 8.16669 7.93748 8.16669Z" fill="#40396B"/>
<path d="M13.6978 8.10833L13.4226 7.959C13.5465 7.32459 13.5465 6.67424 13.4226 6.03983L13.6978 5.8905C13.9094 5.77559 14.0949 5.62258 14.2437 5.4402C14.3925 5.25782 14.5017 5.04965 14.565 4.82756C14.6283 4.60547 14.6445 4.37383 14.6127 4.14584C14.5809 3.91786 14.5017 3.698 14.3796 3.49883C14.2575 3.29966 14.0949 3.12507 13.9012 2.98504C13.7074 2.845 13.4862 2.74225 13.2502 2.68267C13.0143 2.62309 12.7681 2.60783 12.5259 2.63777C12.2837 2.66771 12.0501 2.74226 11.8384 2.85717L11.5626 3.00708C11.0417 2.5882 10.4431 2.26348 9.79685 2.04925V1.75C9.79685 1.28587 9.60095 0.840752 9.25225 0.512563C8.90355 0.184374 8.43061 0 7.93748 0C7.44434 0 6.9714 0.184374 6.6227 0.512563C6.274 0.840752 6.0781 1.28587 6.0781 1.75V2.04925C5.4319 2.26425 4.83347 2.58977 4.31294 3.00942L4.03589 2.85833C3.6085 2.62627 3.10067 2.5635 2.62412 2.68384C2.14756 2.80417 1.74131 3.09775 1.49474 3.5C1.24817 3.90224 1.18148 4.3802 1.30934 4.82873C1.4372 5.27725 1.74913 5.6596 2.17651 5.89167L2.4517 6.041C2.32781 6.67541 2.32781 7.32576 2.4517 7.96017L2.17651 8.1095C1.74913 8.34156 1.4372 8.72391 1.30934 9.17244C1.18148 9.62096 1.24817 10.0989 1.49474 10.5012C1.74131 10.9034 2.14756 11.197 2.62412 11.3173C3.10067 11.4377 3.6085 11.3749 4.03589 11.1428L4.3117 10.9929C4.8328 11.4119 5.43165 11.7366 6.0781 11.9507V12.25C6.0781 12.7141 6.274 13.1592 6.6227 13.4874C6.9714 13.8156 7.44434 14 7.93748 14C8.43061 14 8.90355 13.8156 9.25225 13.4874C9.60095 13.1592 9.79685 12.7141 9.79685 12.25V11.9507C10.4431 11.7358 11.0415 11.4102 11.562 10.9906L11.8391 11.1411C12.2665 11.3731 12.7743 11.4359 13.2508 11.3156C13.7274 11.1952 14.1336 10.9017 14.3802 10.4994C14.6268 10.0972 14.6935 9.61921 14.5656 9.17069C14.4378 8.72217 14.1258 8.33981 13.6984 8.10775L13.6978 8.10833ZM12.1186 5.90567C12.3285 6.62145 12.3285 7.37738 12.1186 8.09317C12.0819 8.21775 12.0903 8.35026 12.1424 8.46989C12.1944 8.58952 12.2872 8.68948 12.4062 8.75408L13.078 9.11925C13.2205 9.1966 13.3244 9.32404 13.367 9.47353C13.4096 9.62302 13.3874 9.78232 13.3052 9.91637C13.223 10.0504 13.0876 10.1483 12.9288 10.1884C12.7699 10.2285 12.6007 10.2075 12.4582 10.1302L11.7851 9.76383C11.6661 9.69893 11.5275 9.67316 11.3911 9.69059C11.2548 9.70801 11.1285 9.76764 11.0321 9.86008C10.4804 10.3901 9.78543 10.7683 9.02211 10.9538C8.88888 10.9861 8.77083 11.0591 8.68655 11.1615C8.60228 11.2638 8.55658 11.3896 8.55665 11.5191V12.25C8.55665 12.4047 8.49135 12.5531 8.37512 12.6625C8.25888 12.7719 8.10124 12.8333 7.93686 12.8333C7.77248 12.8333 7.61483 12.7719 7.4986 12.6625C7.38236 12.5531 7.31707 12.4047 7.31707 12.25V11.5197C7.31713 11.3902 7.27143 11.2644 7.18716 11.162C7.10289 11.0597 6.98484 10.9867 6.8516 10.9544C6.08823 10.7681 5.39344 10.3891 4.84224 9.85833C4.74588 9.76589 4.61957 9.70626 4.48323 9.68884C4.34688 9.67141 4.20826 9.69718 4.08919 9.76208L3.41734 10.1278C3.34682 10.1667 3.26883 10.1921 3.18784 10.2026C3.10686 10.213 3.02448 10.2082 2.94546 10.1886C2.86644 10.1689 2.79233 10.1347 2.7274 10.088C2.66247 10.0413 2.608 9.9829 2.56713 9.91627C2.52626 9.84965 2.49979 9.77608 2.48926 9.69979C2.47872 9.6235 2.48432 9.54601 2.50574 9.47176C2.52716 9.39752 2.56396 9.328 2.61404 9.2672C2.66412 9.2064 2.72649 9.15552 2.79754 9.1175L3.4694 8.75233C3.58837 8.68773 3.68117 8.58777 3.73322 8.46814C3.78527 8.34851 3.79363 8.216 3.75698 8.09142C3.54709 7.37563 3.54709 6.6197 3.75698 5.90392C3.79297 5.7796 3.78421 5.64756 3.73208 5.52842C3.67994 5.40928 3.58736 5.30974 3.46878 5.24533L2.79693 4.88017C2.65449 4.80281 2.55054 4.67537 2.50794 4.52588C2.46534 4.37639 2.48758 4.2171 2.56977 4.08304C2.65196 3.94899 2.78737 3.85115 2.9462 3.81106C3.10503 3.77096 3.27428 3.7919 3.41672 3.86925L4.08981 4.23558C4.20855 4.30063 4.34689 4.32671 4.48309 4.30971C4.61928 4.29271 4.74562 4.2336 4.84224 4.14167C5.39391 3.61162 6.0889 3.23343 6.85222 3.04792C6.98587 3.01558 7.10423 2.94219 7.18854 2.83938C7.27286 2.73656 7.31831 2.61021 7.31769 2.48033V1.75C7.31769 1.59529 7.38298 1.44692 7.49922 1.33752C7.61545 1.22812 7.7731 1.16667 7.93748 1.16667C8.10186 1.16667 8.2595 1.22812 8.37574 1.33752C8.49197 1.44692 8.55727 1.59529 8.55727 1.75V2.48033C8.5572 2.60981 8.6029 2.73563 8.68717 2.83796C8.77145 2.9403 8.8895 3.01334 9.02273 3.04558C9.78632 3.23176 10.4813 3.61077 11.0327 4.14167C11.1291 4.23411 11.2554 4.29374 11.3917 4.31116C11.5281 4.32859 11.6667 4.30282 11.7858 4.23792L12.4576 3.87217C12.5281 3.83326 12.6061 3.80786 12.6871 3.79744C12.7681 3.78702 12.8505 3.79178 12.9295 3.81144C13.0085 3.83111 13.0826 3.86529 13.1476 3.91202C13.2125 3.95875 13.267 4.0171 13.3078 4.08373C13.3487 4.15035 13.3752 4.22392 13.3857 4.30021C13.3962 4.3765 13.3906 4.45399 13.3692 4.52824C13.3478 4.60248 13.311 4.672 13.2609 4.7328C13.2108 4.7936 13.1485 4.84448 13.0774 4.8825L12.4056 5.24767C12.2872 5.31224 12.1949 5.41186 12.143 5.53099C12.0911 5.65012 12.0825 5.78206 12.1186 5.90625V5.90567Z" fill="#40396B"/>
</g>
<defs>
<clipPath id="clip0_1181_285">
<rect width="14.875" height="14" fill="white" transform="translate(0.5)"/>
</clipPath>
</defs>
</svg>
