<svg width="16" height="16" viewBox="0 0 18 18" fill="none" xmlns="http://www.w3.org/2000/svg">
<g clip-path="url(#clip0_1162_4412)">
<path d="M1.5 8.25H9.75C10.1478 8.25 10.5294 8.09196 10.8107 7.81066C11.092 7.52936 11.25 7.14782 11.25 6.75V1.5C11.25 1.10218 11.092 0.720644 10.8107 0.43934C10.5294 0.158035 10.1478 0 9.75 0L1.5 0C1.10218 0 0.720644 0.158035 0.43934 0.43934C0.158035 0.720644 0 1.10218 0 1.5L0 6.75C0 7.14782 0.158035 7.52936 0.43934 7.81066C0.720644 8.09196 1.10218 8.25 1.5 8.25ZM1.5 1.5H9.75V6.75H1.5V1.5Z" fill="#40396B"/>
<path d="M16.5 0H14.25C13.8522 0 13.4706 0.158035 13.1893 0.43934C12.908 0.720644 12.75 1.10218 12.75 1.5V6.75C12.75 7.14782 12.908 7.52936 13.1893 7.81066C13.4706 8.09196 13.8522 8.25 14.25 8.25H16.5C16.8978 8.25 17.2794 8.09196 17.5607 7.81066C17.842 7.52936 18 7.14782 18 6.75V1.5C18 1.10218 17.842 0.720644 17.5607 0.43934C17.2794 0.158035 16.8978 0 16.5 0ZM16.5 6.75H14.25V1.5H16.5V6.75Z" fill="#40396B"/>
<path d="M3.75 9.75H1.5C1.10218 9.75 0.720644 9.90804 0.43934 10.1893C0.158035 10.4706 0 10.8522 0 11.25L0 16.5C0 16.8978 0.158035 17.2794 0.43934 17.5607C0.720644 17.842 1.10218 18 1.5 18H3.75C4.14783 18 4.52936 17.842 4.81066 17.5607C5.09197 17.2794 5.25 16.8978 5.25 16.5V11.25C5.25 10.8522 5.09197 10.4706 4.81066 10.1893C4.52936 9.90804 4.14783 9.75 3.75 9.75ZM3.75 16.5H1.5V11.25H3.75V16.5Z" fill="#40396B"/>
<path d="M16.5 9.75H8.25C7.85218 9.75 7.47064 9.90804 7.18934 10.1893C6.90804 10.4706 6.75 10.8522 6.75 11.25V16.5C6.75 16.8978 6.90804 17.2794 7.18934 17.5607C7.47064 17.842 7.85218 18 8.25 18H16.5C16.8978 18 17.2794 17.842 17.5607 17.5607C17.842 17.2794 18 16.8978 18 16.5V11.25C18 10.8522 17.842 10.4706 17.5607 10.1893C17.2794 9.90804 16.8978 9.75 16.5 9.75ZM16.5 16.5H8.25V11.25H16.5V16.5Z" fill="#40396B"/>
</g>
<defs>
<clipPath id="clip0_1162_4412">
<rect width="18" height="18" fill="white"/>
</clipPath>
</defs>
</svg>
