<svg width="14" height="14" viewBox="0 0 14 14" fill="none" xmlns="http://www.w3.org/2000/svg">
  <g clip-path="url(#clip0_1178_251)">
    <path
      d="M12.5516 8.49683C13.357 8.49683 14.0099 7.84391 14.0099 7.0385C14.0099 6.23308 13.357 5.58017 12.5516 5.58017C11.7462 5.58017 11.0933 6.23308 11.0933 7.0385C11.0933 7.84391 11.7462 8.49683 12.5516 8.49683Z"
      fill="#40396B" />
    <path
      d="M6.99996 8.45833C7.80537 8.45833 8.45829 7.80542 8.45829 7C8.45829 6.19459 7.80537 5.54167 6.99996 5.54167C6.19454 5.54167 5.54163 6.19459 5.54163 7C5.54163 7.80542 6.19454 8.45833 6.99996 8.45833Z"
      fill="#40396B" />
    <path
      d="M1.45833 8.45833C2.26375 8.45833 2.91667 7.80542 2.91667 7C2.91667 6.19459 2.26375 5.54167 1.45833 5.54167C0.652918 5.54167 0 6.19459 0 7C0 7.80542 0.652918 8.45833 1.45833 8.45833Z"
      fill="#40396B" />
  </g>
  <defs>
    <clipPath id="clip0_1178_251">
      <rect width="14" height="14" fill="white" />
    </clipPath>
  </defs>
</svg>