<svg width="21" height="20" viewBox="0 0 21 20" fill="none" xmlns="http://www.w3.org/2000/svg">
<g clip-path="url(#clip0_1162_4603)">
<path d="M10.9474 0C8.96955 0 7.03615 0.58649 5.39166 1.6853C3.74717 2.78412 2.46544 4.3459 1.70857 6.17317C0.95169 8.00043 0.753657 10.0111 1.13951 11.9509C1.52536 13.8907 2.47777 15.6725 3.87629 17.0711C5.27482 18.4696 7.05665 19.422 8.99646 19.8079C10.9363 20.1937 12.9469 19.9957 14.7742 19.2388C16.6015 18.4819 18.1632 17.2002 19.2621 15.5557C20.3609 13.9112 20.9474 11.9778 20.9474 10C20.9445 7.34872 19.89 4.80684 18.0153 2.9321C16.1405 1.05736 13.5986 0.00286757 10.9474 0ZM10.9474 18.3333C9.29918 18.3333 7.68802 17.8446 6.31761 16.9289C4.9472 16.0132 3.8791 14.7117 3.24837 13.189C2.61764 11.6663 2.45261 9.99076 2.77415 8.37425C3.09569 6.75774 3.88937 5.27288 5.0548 4.10744C6.22024 2.94201 7.7051 2.14833 9.32161 1.82679C10.9381 1.50525 12.6137 1.67027 14.1364 2.301C15.6591 2.93173 16.9606 3.99984 17.8763 5.37025C18.792 6.74066 19.2807 8.35182 19.2807 10C19.2783 12.2094 18.3995 14.3276 16.8372 15.8899C15.275 17.4522 13.1568 18.3309 10.9474 18.3333Z" fill="#40396B"/>
<path d="M11.5448 4.21918C11.0643 4.13162 10.5704 4.15075 10.098 4.27521C9.62566 4.39968 9.18644 4.62643 8.81143 4.93943C8.43641 5.25243 8.13477 5.64403 7.92786 6.08651C7.72094 6.52899 7.6138 7.01154 7.61401 7.50001C7.61401 7.72103 7.70181 7.93299 7.85809 8.08927C8.01437 8.24555 8.22633 8.33335 8.44735 8.33335C8.66836 8.33335 8.88032 8.24555 9.0366 8.08927C9.19288 7.93299 9.28068 7.72103 9.28068 7.50001C9.28047 7.25483 9.33436 7.01261 9.43851 6.79064C9.54265 6.56868 9.69449 6.37242 9.8832 6.21587C10.0719 6.05932 10.2928 5.94633 10.5302 5.88497C10.7676 5.8236 11.0156 5.81536 11.2565 5.86085C11.5857 5.92475 11.8884 6.08533 12.1259 6.32209C12.3634 6.55884 12.5249 6.86102 12.5898 7.19001C12.6554 7.53535 12.6101 7.89258 12.4605 8.21063C12.3108 8.52868 12.0644 8.79127 11.7565 8.96085C11.2467 9.25623 10.8253 9.68294 10.5365 10.1965C10.2476 10.7101 10.1017 11.2917 10.114 11.8808V12.5C10.114 12.721 10.2018 12.933 10.3581 13.0893C10.5144 13.2456 10.7263 13.3333 10.9473 13.3333C11.1684 13.3333 11.3803 13.2456 11.5366 13.0893C11.6929 12.933 11.7807 12.721 11.7807 12.5V11.8808C11.7702 11.5909 11.8364 11.3032 11.9724 11.0469C12.1085 10.7906 12.3096 10.5747 12.5557 10.4208C13.1594 10.0892 13.6456 9.57873 13.9474 8.95952C14.2492 8.34031 14.3517 7.64281 14.2409 6.96295C14.1301 6.28309 13.8114 5.65426 13.3286 5.16293C12.8458 4.67159 12.2227 4.3419 11.5448 4.21918Z" fill="#40396B"/>
<path d="M11.7807 15C11.7807 14.5398 11.4076 14.1667 10.9473 14.1667C10.4871 14.1667 10.114 14.5398 10.114 15C10.114 15.4602 10.4871 15.8333 10.9473 15.8333C11.4076 15.8333 11.7807 15.4602 11.7807 15Z" fill="#40396B"/>
</g>
<defs>
<clipPath id="clip0_1162_4603">
<rect width="20" height="20" fill="white" transform="translate(0.947357)"/>
</clipPath>
</defs>
</svg>
