<svg width="14" height="14" viewBox="0 0 14 14" fill="none" xmlns="http://www.w3.org/2000/svg">
<g clip-path="url(#clip0_1181_318)">
<path d="M12.25 3.50002H7.58333V1.16669H6.41667V3.50002H1.75C1.28587 3.50002 0.840752 3.68439 0.512563 4.01258C0.184374 4.34077 0 4.78589 0 5.25002L0 11.6667H14V5.25002C14 4.78589 13.8156 4.34077 13.4874 4.01258C13.1592 3.68439 12.7141 3.50002 12.25 3.50002ZM12.8333 10.5H1.16667V5.25002C1.16667 5.09531 1.22812 4.94694 1.33752 4.83754C1.44692 4.72815 1.59529 4.66669 1.75 4.66669H12.25C12.4047 4.66669 12.5531 4.72815 12.6625 4.83754C12.7719 4.94694 12.8333 5.09531 12.8333 5.25002V10.5Z" fill="#40396B"/>
<path d="M9.33335 8.16669H4.66669V9.33335H9.33335V8.16669Z" fill="#40396B"/>
<path d="M7 5.83337H5.25V7.00004H7V5.83337Z" fill="#40396B"/>
<path d="M11.6667 5.83337H8.16669V7.00004H11.6667V5.83337Z" fill="#40396B"/>
<path d="M4.08331 5.83337H2.33331V7.00004H4.08331V5.83337Z" fill="#40396B"/>
<path d="M3.49998 8.16669H2.33331V9.33335H3.49998V8.16669Z" fill="#40396B"/>
<path d="M11.6667 8.16669H10.5V9.33335H11.6667V8.16669Z" fill="#40396B"/>
</g>
<defs>
<clipPath id="clip0_1181_318">
<rect width="14" height="14" fill="white"/>
</clipPath>
</defs>
</svg>
