<svg width="14" height="14" viewBox="0 0 14 14" fill="none" xmlns="http://www.w3.org/2000/svg">
<g clip-path="url(#clip0_1201_245)">
<path d="M4.57038 9.43248C4.43621 9.29831 4.31021 9.15131 4.19646 8.99615C4.00688 8.73598 4.06404 8.37081 4.32479 8.18123C4.58496 7.99165 4.94954 8.04881 5.13971 8.30898C5.21496 8.41281 5.29954 8.51256 5.39463 8.60706C5.86304 9.07548 6.48546 9.33331 7.14754 9.33331C7.80963 9.33331 8.43263 9.07548 8.90046 8.60706L12.1088 5.39873C13.0754 4.43215 13.0754 2.8589 12.1088 1.89231C11.1422 0.925729 9.56896 0.925729 8.60238 1.89231L7.98521 2.50948C7.75713 2.73756 7.38846 2.73756 7.16038 2.50948C6.93229 2.2814 6.93229 1.91273 7.16038 1.68465L7.77754 1.06748C9.19913 -0.354687 11.512 -0.354687 12.9336 1.06748C14.3552 2.48906 14.3552 4.80198 12.9336 6.22356L9.72529 9.4319C9.03696 10.1208 8.12113 10.5 7.14754 10.5C6.17396 10.5 5.25813 10.1208 4.57038 9.43248ZM3.64754 14C4.62171 14 5.53696 13.6208 6.22529 12.9319L6.84246 12.3147C7.07054 12.0872 7.07054 11.718 6.84246 11.4899C6.61496 11.2618 6.24571 11.2624 6.01763 11.4899L5.39988 12.1071C4.93146 12.5755 4.30904 12.8333 3.64696 12.8333C2.98488 12.8333 2.36246 12.5755 1.89404 12.1071C1.42563 11.6386 1.16779 11.0162 1.16779 10.3541C1.16779 9.69206 1.42563 9.06906 1.89404 8.60123L5.10238 5.3929C5.57079 4.92448 6.19321 4.66665 6.85529 4.66665C7.51738 4.66665 8.14038 4.92448 8.60821 5.3929C8.70154 5.48681 8.78671 5.58656 8.86254 5.6904C9.05154 5.95115 9.41613 6.00948 9.67746 5.81931C9.93821 5.62973 9.99596 5.26515 9.80638 5.0044C9.69554 4.85156 9.57013 4.70515 9.43363 4.56865C8.74471 3.87915 7.82888 3.49998 6.85529 3.49998C5.88171 3.49998 4.96588 3.87915 4.27754 4.56806L1.06979 7.7764C0.380876 8.46473 0.00170898 9.38056 0.00170898 10.3541C0.00170898 11.3277 0.380876 12.2436 1.06979 12.9319C1.75813 13.6208 2.67338 14 3.64754 14Z" fill="#40396B"/>
</g>
<defs>
<clipPath id="clip0_1201_245">
<rect width="14" height="14" fill="white"/>
</clipPath>
</defs>
</svg>
