<svg width="19" height="20" viewBox="0 0 19 20" fill="none" xmlns="http://www.w3.org/2000/svg">
<g clip-path="url(#clip0_1162_4597)">
<path d="M9.48079 20C8.15413 19.992 6.84376 19.7071 5.63362 19.1634C4.42347 18.6196 3.34023 17.8292 2.45328 16.8426C1.56634 15.8559 0.895238 14.695 0.482976 13.434C0.0707131 12.173 -0.0736236 10.8398 0.0592111 9.51974C0.295241 7.45851 1.19478 5.52982 2.62228 4.02428C4.04978 2.51875 5.92791 1.51793 7.97368 1.17264C9.29532 0.967587 10.6443 1.02283 11.9447 1.33527C12.2872 1.42316 12.5997 1.60141 12.8497 1.85139C13.0996 2.10136 13.2779 2.4139 13.3658 2.75632C13.4543 3.09564 13.4497 3.45255 13.3525 3.78948C13.2552 4.1264 13.0689 4.43086 12.8132 4.6708C9.21394 7.96132 9.525 13.0747 13.4503 16.0487C13.7275 16.2665 13.9414 16.5546 14.0696 16.8831C14.1978 17.2116 14.2357 17.5684 14.1793 17.9165C14.1228 18.2646 13.9742 18.5912 13.7488 18.8623C13.5234 19.1335 13.2295 19.3393 12.8976 19.4584C11.7946 19.8188 10.6412 20.0016 9.48079 20ZM9.53921 2.63159C9.09648 2.63055 8.65435 2.66407 8.21684 2.73185C6.51473 3.02063 4.95232 3.85405 3.76443 5.10685C2.57655 6.35965 1.82736 7.96416 1.62947 9.67921C1.50637 10.7845 1.61989 11.9033 1.9625 12.9614C2.30511 14.0194 2.86895 14.9924 3.61658 15.8158C4.71059 16.9849 6.12052 17.8112 7.67515 18.1944C9.22978 18.5775 10.8622 18.501 12.3742 17.9742C12.4391 17.9496 12.4965 17.9084 12.5403 17.8546C12.5842 17.8008 12.6132 17.7364 12.6242 17.6678C12.6353 17.5993 12.6281 17.5291 12.6033 17.4642C12.5785 17.3993 12.5371 17.3421 12.4832 17.2984C7.80237 13.7632 7.43447 7.43711 11.7355 3.51895C11.7846 3.47308 11.82 3.41445 11.8377 3.34962C11.8554 3.28479 11.8548 3.21632 11.8358 3.15185C11.8194 3.08312 11.7846 3.02018 11.7351 2.96981C11.6855 2.91944 11.6232 2.88356 11.5547 2.86606C10.8948 2.70705 10.218 2.62832 9.53921 2.63159ZM16.1842 10.5263C16.0082 10.5263 15.8373 10.4675 15.6985 10.3592C15.5598 10.2509 15.4612 10.0994 15.4184 9.92869L15.1358 8.79974L14.0053 8.49579C13.8352 8.45003 13.6854 8.34874 13.5796 8.20803C13.4737 8.06732 13.4179 7.89526 13.4211 7.71922C13.4243 7.54317 13.4862 7.37324 13.5971 7.23644C13.7079 7.09964 13.8613 7.00382 14.0329 6.96422L15.1382 6.70764L15.4153 5.59764C15.458 5.42693 15.5566 5.27541 15.6954 5.16715C15.8341 5.05889 16.0051 5.00009 16.181 5.00009C16.357 5.00009 16.528 5.05889 16.6667 5.16715C16.8055 5.27541 16.9041 5.42693 16.9468 5.59764L17.2271 6.71711L18.3466 6.99737C18.5173 7.04016 18.6688 7.13875 18.7771 7.27749C18.8853 7.41624 18.9441 7.58718 18.9441 7.76316C18.9441 7.93915 18.8853 8.11009 18.7771 8.24883C18.6688 8.38758 18.5173 8.48617 18.3466 8.52895L17.2271 8.80921L16.9468 9.92869C16.9042 10.0989 16.8061 10.25 16.668 10.3583C16.5299 10.4665 16.3597 10.5256 16.1842 10.5263ZM12.6316 12.1053C12.6316 12.3146 12.7147 12.5155 12.8628 12.6635C13.0109 12.8116 13.2117 12.8947 13.421 12.8947C13.6304 12.8947 13.8312 12.8116 13.9793 12.6635C14.1273 12.5155 14.2105 12.3146 14.2105 12.1053C14.2105 11.8959 14.1273 11.6951 13.9793 11.547C13.8312 11.399 13.6304 11.3158 13.421 11.3158C13.2117 11.3158 13.0109 11.399 12.8628 11.547C12.7147 11.6951 12.6316 11.8959 12.6316 12.1053ZM17.3684 15.2632C17.3684 15.4725 17.4516 15.6733 17.5996 15.8214C17.7477 15.9695 17.9485 16.0526 18.1579 16.0526C18.3673 16.0526 18.5681 15.9695 18.7161 15.8214C18.8642 15.6733 18.9474 15.4725 18.9474 15.2632C18.9474 15.0538 18.8642 14.853 18.7161 14.7049C18.5681 14.5569 18.3673 14.4737 18.1579 14.4737C17.9485 14.4737 17.7477 14.5569 17.5996 14.7049C17.4516 14.853 17.3684 15.0538 17.3684 15.2632Z" fill="#40396B"/>
</g>
<defs>
<clipPath id="clip0_1162_4597">
<rect width="18.9474" height="20" fill="white"/>
</clipPath>
</defs>
</svg>
