<svg width="14" height="14" viewBox="0 0 14 14" fill="none" xmlns="http://www.w3.org/2000/svg">
<g clip-path="url(#clip0_1181_312)">
<path d="M9.98375 4.69584C9.81651 4.74028 9.66619 4.83331 9.55182 4.96316C9.43744 5.09302 9.36414 5.25388 9.34117 5.42539C9.31821 5.59691 9.34662 5.77138 9.42281 5.92676C9.499 6.08213 9.61955 6.21142 9.76922 6.29828C9.91888 6.38514 10.0909 6.42568 10.2636 6.41476C10.4363 6.40384 10.6019 6.34196 10.7395 6.23694C10.877 6.13192 10.9803 5.98847 11.0363 5.82474C11.0923 5.66101 11.0986 5.48435 11.0542 5.31709C11.0247 5.20601 10.9736 5.10182 10.9039 5.01047C10.8341 4.91913 10.7471 4.84242 10.6477 4.78473C10.5483 4.72704 10.4385 4.68949 10.3245 4.67424C10.2106 4.65899 10.0948 4.66633 9.98375 4.69584Z" fill="#40396B"/>
<path d="M7.06707 2.94584C6.89982 2.99028 6.74951 3.08331 6.63513 3.21316C6.52075 3.34302 6.44745 3.50388 6.42449 3.67539C6.40152 3.84691 6.42993 4.02138 6.50612 4.17676C6.58231 4.33213 6.70286 4.46142 6.85253 4.54828C7.0022 4.63514 7.17426 4.67568 7.34696 4.66476C7.51966 4.65384 7.68525 4.59196 7.82278 4.48694C7.96032 4.38192 8.06362 4.23847 8.11964 4.07474C8.17565 3.91101 8.18186 3.73435 8.13748 3.56709C8.10801 3.45601 8.05693 3.35182 7.98718 3.26047C7.91743 3.16913 7.83037 3.09242 7.73097 3.03473C7.63157 2.97704 7.52177 2.93949 7.40786 2.92424C7.29394 2.90899 7.17814 2.91633 7.06707 2.94584Z" fill="#40396B"/>
<path d="M4.15044 4.69584C3.98319 4.74028 3.83288 4.83331 3.7185 4.96316C3.60413 5.09302 3.53082 5.25388 3.50786 5.42539C3.4849 5.59691 3.51331 5.77138 3.5895 5.92676C3.66569 6.08213 3.78624 6.21142 3.9359 6.29828C4.08557 6.38514 4.25763 6.42568 4.43033 6.41476C4.60303 6.40384 4.76862 6.34196 4.90616 6.23694C5.04369 6.13192 5.147 5.98847 5.20301 5.82474C5.25903 5.66101 5.26524 5.48435 5.22086 5.31709C5.19138 5.20601 5.14031 5.10182 5.07056 5.01047C5.00081 4.91913 4.91374 4.84242 4.81434 4.78473C4.71494 4.72704 4.60515 4.68949 4.49123 4.67424C4.37732 4.65899 4.26152 4.66633 4.15044 4.69584Z" fill="#40396B"/>
<path d="M4.15044 8.19584C3.98319 8.24028 3.83288 8.33331 3.7185 8.46316C3.60413 8.59302 3.53082 8.75388 3.50786 8.92539C3.4849 9.09691 3.51331 9.27138 3.5895 9.42676C3.66569 9.58213 3.78624 9.71142 3.9359 9.79828C4.08557 9.88514 4.25763 9.92568 4.43033 9.91476C4.60303 9.90384 4.76862 9.84196 4.90616 9.73694C5.04369 9.63192 5.147 9.48847 5.20301 9.32474C5.25903 9.16101 5.26524 8.98435 5.22086 8.81709C5.19138 8.70601 5.14031 8.60182 5.07056 8.51047C5.00081 8.41913 4.91374 8.34242 4.81434 8.28473C4.71494 8.22704 4.60515 8.18949 4.49123 8.17424C4.37732 8.15899 4.26152 8.16633 4.15044 8.19584Z" fill="#40396B"/>
<path d="M7.29165 0.00410592C6.35248 -0.0285501 5.41634 0.128234 4.53906 0.46511C3.66177 0.801986 2.8613 1.31206 2.18536 1.96491C1.50943 2.61777 0.971863 3.40005 0.604722 4.2651C0.237582 5.13016 0.0483815 6.06028 0.0484009 7.00002C0.0505623 8.85588 0.788754 10.6351 2.10104 11.9474C3.41333 13.2597 5.19255 13.9979 7.0484 14C7.24557 14 7.43923 13.9872 7.63173 13.9709C7.7778 13.9585 7.91388 13.8917 8.01289 13.7836C8.1119 13.6755 8.16658 13.5341 8.16607 13.3875L8.1474 11.2945C8.14268 10.8809 8.26133 10.4753 8.48821 10.1294C8.71509 9.7836 9.03989 9.51321 9.42116 9.35282C9.80242 9.19243 10.2228 9.1493 10.6287 9.22896C11.0346 9.30861 11.4075 9.50743 11.6999 9.80002L11.7582 9.85836C11.8907 9.99191 12.0547 10.0898 12.2351 10.1429C12.4155 10.1961 12.6065 10.2027 12.7902 10.1623C12.9709 10.1243 13.1391 10.0416 13.2795 9.92161C13.4199 9.80163 13.5278 9.64829 13.5934 9.47569C13.9155 8.63003 14.0694 7.72965 14.0467 6.82502C13.981 5.0482 13.2502 3.36089 11.999 2.09753C10.7479 0.83418 9.06776 0.0870048 7.29165 0.00410592ZM12.5312 8.98744L12.523 8.97927C12.067 8.52407 11.4859 8.21478 10.8537 8.09076C10.2215 7.96675 9.5666 8.03361 8.97246 8.28283C8.37832 8.53206 7.87174 8.95239 7.51718 9.49035C7.16261 10.0283 6.97608 10.6596 6.98132 11.3039L6.99532 12.8334C5.44822 12.8264 3.96726 12.2051 2.87822 11.1063C1.78918 10.0074 1.18127 8.52087 1.18823 6.97377C1.1952 5.42668 1.81645 3.94571 2.91534 2.85667C4.01422 1.76763 5.50072 1.15973 7.04782 1.16669C7.11607 1.16669 7.1849 1.16669 7.25373 1.17019C8.73329 1.23968 10.1328 1.86245 11.1748 2.91509C12.2169 3.96773 12.8255 5.37342 12.88 6.85361C12.8992 7.57903 12.7815 8.30158 12.5329 8.98336L12.5312 8.98744Z" fill="#40396B"/>
</g>
<defs>
<clipPath id="clip0_1181_312">
<rect width="14" height="14" fill="white"/>
</clipPath>
</defs>
</svg>
