<svg width="16" height="14" viewBox="0 0 16 14" fill="none" xmlns="http://www.w3.org/2000/svg">
  <g clip-path="url(#clip0_1207_293)">
    <path
      d="M13.125 6.125H7.875V0.875C7.875 0.391754 7.48325 0 7 0C6.51675 0 6.125 0.391754 6.125 0.875V6.125H0.875C0.391754 6.125 0 6.51675 0 7C0 7.48325 0.391754 7.875 0.875 7.875H6.125V13.125C6.125 13.6082 6.51675 14 7 14C7.48325 14 7.875 13.6082 7.875 13.125V7.875H13.125C13.6082 7.875 14 7.48325 14 7C14 6.51675 13.6082 6.125 13.125 6.125Z"
      fill="#40396B" />
  </g>
  <defs>
    <clipPath id="clip0_1207_293">
      <rect width="14" height="14" fill="white" />
    </clipPath>
  </defs>
</svg>