<svg width="14" height="14" viewBox="0 0 14 14" fill="none" xmlns="http://www.w3.org/2000/svg">
<g clip-path="url(#clip0_1201_242)">
<path d="M6.99996 1.16664C7.77375 1.16918 8.53936 1.32516 9.25248 1.62555C9.9656 1.92593 10.6121 2.36476 11.1545 2.91664H9.33329C9.17858 2.91664 9.03021 2.9781 8.92081 3.0875C8.81141 3.1969 8.74996 3.34527 8.74996 3.49998C8.74996 3.65469 8.81141 3.80306 8.92081 3.91246C9.03021 4.02185 9.17858 4.08331 9.33329 4.08331H11.75C12.0373 4.08316 12.3127 3.96898 12.5158 3.76586C12.719 3.56275 12.8331 3.28731 12.8333 3.00006V0.583311C12.8333 0.428602 12.7718 0.280228 12.6624 0.170832C12.553 0.061436 12.4047 -2.21263e-05 12.25 -2.21263e-05C12.0952 -2.21263e-05 11.9469 0.061436 11.8375 0.170832C11.7281 0.280228 11.6666 0.428602 11.6666 0.583311V1.79548C10.7025 0.927159 9.51563 0.344384 8.23901 0.112415C6.96239 -0.119554 5.6464 0.00844318 4.43841 0.482072C3.23042 0.955701 2.17813 1.75626 1.39938 2.7941C0.620626 3.83194 0.146163 5.06608 0.029122 6.35831C0.0215873 6.43954 0.0310562 6.52146 0.0569254 6.59883C0.0827946 6.6762 0.124497 6.74734 0.179375 6.8077C0.234253 6.86807 0.301104 6.91634 0.375668 6.94945C0.450231 6.98255 0.530873 6.99976 0.612455 6.99998C0.755132 7.0018 0.89335 6.9503 1.00006 6.85557C1.10676 6.76084 1.17427 6.6297 1.18937 6.48781C1.31923 5.03575 1.98736 3.68472 3.0625 2.70013C4.13765 1.71555 5.5421 1.16857 6.99996 1.16664Z" fill="#40396B"/>
<path d="M13.388 6.99999C13.2454 6.99817 13.1071 7.04966 13.0004 7.14439C12.8937 7.23912 12.8262 7.37027 12.8111 7.51215C12.7147 8.62237 12.3018 9.68163 11.6215 10.5643C10.9412 11.4469 10.022 12.1159 8.97288 12.4918C7.9238 12.8677 6.78891 12.9349 5.70283 12.6852C4.61675 12.4356 3.62508 11.8796 2.84546 11.0833H4.66663C4.82134 11.0833 4.96971 11.0219 5.07911 10.9125C5.1885 10.8031 5.24996 10.6547 5.24996 10.5C5.24996 10.3453 5.1885 10.1969 5.07911 10.0875C4.96971 9.97811 4.82134 9.91665 4.66663 9.91665H2.24988C2.1076 9.91658 1.9667 9.94454 1.83524 9.99895C1.70378 10.0534 1.58434 10.1332 1.48373 10.2338C1.38313 10.3344 1.30334 10.4538 1.24893 10.5853C1.19452 10.7167 1.16655 10.8576 1.16663 10.9999V13.4167C1.16663 13.5714 1.22808 13.7197 1.33748 13.8291C1.44688 13.9385 1.59525 14 1.74996 14C1.90467 14 2.05304 13.9385 2.16244 13.8291C2.27183 13.7197 2.33329 13.5714 2.33329 13.4167V12.2045C3.29744 13.0728 4.48428 13.6556 5.7609 13.8875C7.03752 14.1195 8.35351 13.9915 9.5615 13.5179C10.7695 13.0443 11.8218 12.2437 12.6005 11.2059C13.3793 10.168 13.8538 8.93389 13.9708 7.64165C13.9783 7.56042 13.9689 7.47851 13.943 7.40113C13.9171 7.32376 13.8754 7.25263 13.8205 7.19226C13.7657 7.13189 13.6988 7.08362 13.6242 7.05052C13.5497 7.01741 13.4696 7.0002 13.388 6.99999Z" fill="#40396B"/>
</g>
<defs>
<clipPath id="clip0_1201_242">
<rect width="14" height="14" fill="white"/>
</clipPath>
</defs>
</svg>
