<svg width="18" height="14" viewBox="0 0 18 14" fill="none" xmlns="http://www.w3.org/2000/svg">
<path d="M8.99672 5.07938C9.82202 5.07938 10.4973 5.75438 10.4973 6.57938C10.4973 7.40438 9.82202 8.07938 8.99672 8.07938C8.17142 8.07938 7.49617 7.40438 7.49617 6.57938C7.49617 5.75438 8.17142 5.07938 8.99672 5.07938ZM15.3665 12.9469C18.8778 9.43687 18.8778 3.72937 15.3665 0.219375C15.0739 -0.073125 14.6013 -0.073125 14.3087 0.219375C14.016 0.511875 14.016 0.984375 14.3087 1.27687C17.2347 4.20187 17.2347 8.95687 14.3087 11.8819C14.016 12.1744 14.016 12.6469 14.3087 12.9394C14.4587 13.0894 14.6463 13.1569 14.8413 13.1569C15.0364 13.1569 15.224 13.0819 15.374 12.9394L15.3665 12.9469ZM12.7106 10.2919C13.7009 9.30188 14.2486 7.98188 14.2486 6.57938C14.2486 5.17688 13.7009 3.85688 12.7106 2.86688C12.418 2.57438 11.9453 2.57438 11.6527 2.86688C11.3601 3.15938 11.3601 3.63188 11.6527 3.92438C12.3579 4.62938 12.7481 5.57438 12.7481 6.57938C12.7481 7.58438 12.3579 8.52188 11.6527 9.23438C11.3601 9.52687 11.3601 9.99938 11.6527 10.2919C11.8027 10.4419 11.9903 10.5094 12.1854 10.5094C12.3805 10.5094 12.568 10.4344 12.7181 10.2919H12.7106ZM3.69228 12.9469C3.98489 12.6544 3.98489 12.1819 3.69228 11.8894C0.766217 8.96437 0.766217 4.20938 3.69228 1.28438C3.98489 0.991875 3.98489 0.519375 3.69228 0.226875C3.39968 -0.065625 2.92701 -0.065625 2.6344 0.226875C-0.876881 3.72187 -0.876882 9.43687 2.6269 12.9469C2.77695 13.0969 2.96452 13.1644 3.15959 13.1644C3.35466 13.1644 3.54223 13.0894 3.69228 12.9469ZM6.34825 10.2919C6.64086 9.99938 6.64086 9.52687 6.34825 9.23438C4.88522 7.77187 4.88522 5.39438 6.34825 3.93188C6.64086 3.63938 6.64086 3.16687 6.34825 2.87437C6.05565 2.58187 5.58297 2.58187 5.29037 2.87437C3.24212 4.92188 3.24212 8.25187 5.29037 10.2994C5.44042 10.4494 5.62799 10.5169 5.82306 10.5169C6.01813 10.5169 6.2057 10.4419 6.35576 10.2994L6.34825 10.2919Z" fill="#40396B"/>
</svg>
