<svg width="20" height="20" viewBox="0 0 20 20" fill="none" xmlns="http://www.w3.org/2000/svg">
<g clip-path="url(#clip0_1174_265)">
<path d="M10 14.1667C7.7 14.1667 5.83333 12.3 5.83333 10C5.83333 7.7 7.7 5.83333 10 5.83333C12.3 5.83333 14.1667 7.7 14.1667 10C14.1667 12.3 12.3 14.1667 10 14.1667ZM10 7.5C8.625 7.5 7.5 8.625 7.5 10C7.5 11.375 8.625 12.5 10 12.5C11.375 12.5 12.5 11.375 12.5 10C12.5 8.625 11.375 7.5 10 7.5ZM10.8333 3.33333V0.833333C10.8333 0.375 10.4583 0 10 0C9.54167 0 9.16667 0.375 9.16667 0.833333V3.33333C9.16667 3.79167 9.54167 4.16667 10 4.16667C10.4583 4.16667 10.8333 3.79167 10.8333 3.33333ZM10.8333 19.1667V16.6667C10.8333 16.2083 10.4583 15.8333 10 15.8333C9.54167 15.8333 9.16667 16.2083 9.16667 16.6667V19.1667C9.16667 19.625 9.54167 20 10 20C10.4583 20 10.8333 19.625 10.8333 19.1667ZM4.16667 10C4.16667 9.54167 3.79167 9.16667 3.33333 9.16667H0.833333C0.375 9.16667 0 9.54167 0 10C0 10.4583 0.375 10.8333 0.833333 10.8333H3.33333C3.79167 10.8333 4.16667 10.4583 4.16667 10ZM20 10C20 9.54167 19.625 9.16667 19.1667 9.16667H16.6667C16.2083 9.16667 15.8333 9.54167 15.8333 10C15.8333 10.4583 16.2083 10.8333 16.6667 10.8333H19.1667C19.625 10.8333 20 10.4583 20 10ZM5.59167 5.59167C5.91667 5.26667 5.91667 4.74167 5.59167 4.41667L3.925 2.75C3.6 2.425 3.075 2.425 2.75 2.75C2.425 3.075 2.425 3.6 2.75 3.925L4.41667 5.59167C4.58333 5.75833 4.79167 5.83333 5.00833 5.83333C5.225 5.83333 5.43333 5.75 5.6 5.59167H5.59167ZM17.2583 17.2583C17.5833 16.9333 17.5833 16.4083 17.2583 16.0833L15.5917 14.4167C15.2667 14.0917 14.7417 14.0917 14.4167 14.4167C14.0917 14.7417 14.0917 15.2667 14.4167 15.5917L16.0833 17.2583C16.25 17.425 16.4583 17.5 16.675 17.5C16.8917 17.5 17.1 17.4167 17.2667 17.2583H17.2583ZM3.925 17.2583L5.59167 15.5917C5.91667 15.2667 5.91667 14.7417 5.59167 14.4167C5.26667 14.0917 4.74167 14.0917 4.41667 14.4167L2.75 16.0833C2.425 16.4083 2.425 16.9333 2.75 17.2583C2.91667 17.425 3.125 17.5 3.34167 17.5C3.55833 17.5 3.76667 17.4167 3.93333 17.2583H3.925ZM15.5917 5.59167L17.2583 3.925C17.5833 3.6 17.5833 3.075 17.2583 2.75C16.9333 2.425 16.4083 2.425 16.0833 2.75L14.4167 4.41667C14.0917 4.74167 14.0917 5.26667 14.4167 5.59167C14.5833 5.75833 14.7917 5.83333 15.0083 5.83333C15.225 5.83333 15.4333 5.75 15.6 5.59167H15.5917Z" fill="#40396B"/>
</g>
<defs>
<clipPath id="clip0_1174_265">
<rect width="20" height="20" fill="white"/>
</clipPath>
</defs>
</svg>
