<svg width="286" height="242" viewBox="0 0 286 242" fill="none" xmlns="http://www.w3.org/2000/svg">
<g opacity="0.35">
<g clip-path="url(#clip0_1162_4684)">
<path d="M285.345 71.0613C286.874 63.3604 285.694 56.7117 281.82 51.305C277.903 45.8399 272.02 42.7712 267.33 41.0908C267.243 41.2223 267.112 41.3099 266.908 41.3538C265.379 41.6168 263.748 41.3538 262.583 40.3163C261.432 40.2578 260.792 39.5126 260.617 38.4605C260.573 38.4313 260.544 38.3874 260.515 38.3582C259.379 38.0221 258.287 37.5253 257.413 36.7946C257.442 37.6568 257.428 38.4313 257.413 39.0742C259.466 40.4332 260.85 42.6397 262.947 43.9694C263.937 44.5832 265.015 45.1385 266.034 45.7668C266.573 46.1029 267.141 46.3951 267.724 46.6436C271.262 48.1633 275.165 50.5597 277.816 54.2567C280.83 58.4798 281.733 63.7988 280.481 70.0822C276.723 88.9179 270.461 94.2516 267.258 94.4708C264.636 94.2223 232.423 91.1245 204.215 87.3544C202.846 87.179 201.594 88.1435 201.404 89.5171C201.215 90.8906 202.191 92.1473 203.56 92.3373C232.918 96.2535 266.617 99.4537 266.952 99.4829C267.054 99.4829 267.141 99.4829 267.243 99.4829C269.253 99.439 273.214 98.5185 277.233 92.8926C280.728 87.9827 283.481 80.6326 285.388 71.0613H285.345Z" fill="#40396B"/>
<path d="M255.782 28.8454C256.117 28.6262 256.481 28.4508 256.831 28.2901C257.806 27.8371 258.884 27.4425 259.976 27.4425C260.195 27.4425 260.413 27.4572 260.617 27.501C259.161 23.5702 256.86 20.0485 253.787 17.1406C248.34 11.9678 235.307 6.03502 222.113 2.70334C212.822 0.365319 195.885 -2.55721 186.827 4.06232C180.128 8.95755 165.58 21.8167 152.939 37.1892C146.036 45.5914 140.706 53.5115 137.109 60.7302C132.726 69.5416 130.935 77.3593 131.794 83.9204C132.857 92.1473 137.153 97.6125 143.765 99.4244C145.046 99.7751 146.415 99.9943 147.871 100.053C154.366 100.374 161.852 97.744 168.405 92.8487C175.293 87.7051 179.968 80.9979 181.599 73.94C181.905 72.5956 181.075 71.2366 179.72 70.9298C178.38 70.6229 177.026 71.4558 176.72 72.8148C175.381 78.6306 171.274 84.4611 165.42 88.8303C159.871 92.9803 153.391 95.3037 148.119 95.0406C147.056 94.9822 146.051 94.8361 145.133 94.5876C140.43 93.3017 137.561 89.444 136.76 83.2775C135.391 72.8002 142.323 57.9684 156.798 40.3747C169.148 25.3529 183.288 12.8445 189.769 8.11002C192.521 6.10809 196.963 5.02675 202.628 5.01214C207.885 4.99753 214.205 5.87429 220.904 7.55474C233.166 10.638 245.559 16.1908 250.365 20.7646C252.797 23.0734 254.617 25.7767 255.797 28.8307L255.782 28.8454Z" fill="#40396B"/>
<path d="M257.384 63.6235C257.457 63.6235 257.544 63.6527 257.617 63.6673L254.967 75.2697L259.787 76.5849L262.554 64.5002C263.53 64.6609 264.505 64.8363 265.481 64.997C266.733 65.2016 268 65.4208 269.253 65.2016C271.859 64.7486 273.869 62.4398 274.612 59.8972C275.151 58.0999 274.787 55.6157 272.981 55.1335L270.403 54.0522C265.233 52.7078 260.064 51.3634 254.894 50.0045C253.729 49.6976 252.535 49.3907 251.355 49.6099C248.559 50.1214 247.059 53.3361 246.986 56.1856C246.972 56.814 247.001 57.4569 247.19 58.056C247.438 58.8451 247.933 59.5465 248.515 60.131C250.802 62.4252 254.209 63.0682 257.384 63.6088V63.6235Z" fill="#40396B"/>
<path d="M271.219 29.0646C268.714 22.3135 258.622 24.1255 258.622 24.1255C210.229 30.1897 173.604 18.1781 173.604 18.1781L168.39 26.7704C189.914 48.3971 222.535 48.9377 235.729 50.0337C248.923 51.115 252.374 41.0615 256.015 39.5126C259.656 37.9637 259.685 43.4872 266.471 43.5895C273.258 43.6918 271.233 29.0792 271.233 29.0792L271.219 29.0646ZM243.36 43.9256C236.326 43.9841 232.35 46.2782 233.049 32.0748C233.151 30.1313 246.389 27.9978 249.899 30.9057C253.117 33.5799 250.656 43.8525 243.36 43.911V43.9256ZM264.913 40.4916C262.568 40.6378 258.578 35.2019 259.335 31.1395C259.685 29.2253 264.287 27.5448 267.374 28.9038C270.578 30.3212 270.243 40.1702 264.913 40.4916Z" fill="#40396B"/>
<path d="M248.122 98.65C252.433 111.889 255.578 125.493 257.777 139.244C259.976 152.994 258.316 142.692 258.564 144.417C258.811 146.141 258.797 146.053 258.913 146.872C259.03 147.69 258.957 147.237 258.986 147.412C258.928 146.989 259 147.573 259.015 147.661C259.088 148.158 259.146 148.654 259.204 149.166C259.641 152.629 260.034 156.092 260.369 159.57C261.039 166.482 261.534 173.408 261.855 180.349C262.19 187.29 262.364 194.246 262.437 201.187C262.51 208.128 262.466 208.172 262.437 211.664C262.423 215.098 262.423 218.532 262.015 221.951C261.607 225.371 261.986 222.171 262.015 222.054C261.971 222.317 261.942 222.58 261.898 222.843C261.855 223.106 261.782 223.544 261.709 223.895C261.534 224.772 261.316 225.634 261.054 226.496C260.792 227.358 260.806 227.241 260.675 227.621C260.544 228.001 260.238 228.629 260.5 228.089C260.195 228.746 259.889 229.389 259.525 230.018C259.161 230.646 258.84 231.114 258.462 231.654C258.083 232.195 258.418 231.713 258.476 231.64C258.345 231.8 258.199 231.976 258.068 232.136C257.835 232.414 257.588 232.677 257.34 232.926C257.093 233.174 256.889 233.379 256.641 233.583C256.394 233.788 255.797 234.27 256.277 233.919C255.709 234.343 255.127 234.723 254.501 235.059C253.874 235.395 254.253 235.191 254.122 235.249C253.991 235.307 253.481 235.527 253.86 235.38C254.238 235.234 253.598 235.468 253.583 235.483C253.452 235.527 253.321 235.57 253.175 235.614C252.869 235.717 252.549 235.79 252.243 235.863C251.937 235.936 251.879 235.936 251.704 235.965C251.151 236.082 252.156 235.965 251.544 235.98C250.933 235.994 250.248 236.038 249.607 235.98C248.967 235.921 249.316 235.95 249.185 235.936C249.782 235.994 249.287 235.95 249.127 235.936C248.734 235.863 248.34 235.79 247.962 235.687C247.321 235.527 246.709 235.307 246.098 235.059C246.578 235.264 246.214 235.103 246.112 235.059C245.952 234.971 245.777 234.898 245.617 234.811C245.253 234.621 244.889 234.431 244.54 234.226C243.957 233.875 243.404 233.51 242.879 233.101C242.967 233.159 243.258 233.408 242.879 233.101C242.501 232.794 242.588 232.867 242.457 232.736C242.151 232.458 241.845 232.18 241.554 231.888C241.074 231.406 240.637 230.909 240.2 230.398C239.763 229.886 239.894 230.003 240.2 230.398C240.112 230.266 240.01 230.149 239.923 230.018C239.632 229.608 239.355 229.199 239.093 228.776C238.278 227.475 237.593 226.116 236.981 224.713C236.37 223.31 237.2 225.283 236.909 224.538C236.617 223.793 236.792 224.231 236.719 224.07C236.574 223.676 236.428 223.296 236.282 222.901C236.02 222.156 235.773 221.396 235.54 220.636C235.074 219.117 234.666 217.582 234.273 216.033C232.496 209.019 230.807 201.991 229.074 194.962C228.637 193.165 228.185 191.382 227.749 189.584C227.05 186.735 222.477 187.29 222.593 190.286C222.855 196.511 223.132 202.736 223.394 208.975L223.802 218.342C223.875 219.964 223.889 221.601 223.744 223.223C223.598 224.845 223.7 223.69 223.671 223.924C223.569 224.816 223.758 223.442 223.613 224.333C223.467 225.225 223.453 225.254 223.365 225.707C223.161 226.701 222.899 227.694 222.579 228.673C222.462 229.024 222.346 229.36 222.215 229.711C222.084 230.061 222.054 230.12 221.967 230.324C222.171 229.828 222.025 230.193 221.967 230.295C221.588 231.07 221.224 231.83 220.758 232.546C220.292 233.262 220.365 233.13 220.161 233.408C220.54 232.896 220.118 233.452 220.059 233.525C219.928 233.685 219.783 233.832 219.652 233.992C219.419 234.241 219.171 234.489 218.909 234.723C218.647 234.957 218.589 235.001 218.428 235.132C218.778 234.84 218.487 235.088 218.283 235.22C217.962 235.439 217.627 235.644 217.292 235.833C216.957 236.023 216.957 235.994 216.797 236.082C216.157 236.418 217.263 235.95 216.579 236.17C216.215 236.286 215.865 236.418 215.487 236.506C215.108 236.593 215.05 236.608 214.817 236.652C214.584 236.696 214.147 236.739 214.613 236.696C213.783 236.783 212.938 236.798 212.093 236.725C211.249 236.652 211.249 236.608 211.875 236.71C211.729 236.681 211.569 236.666 211.424 236.637C210.885 236.535 210.361 236.403 209.836 236.257C209.312 236.111 209.094 236.009 208.729 235.877C208.016 235.629 209.181 236.111 208.496 235.79C207.812 235.468 208.22 235.658 208.074 235.585C207.229 235.176 206.429 234.694 205.671 234.138C205.7 234.153 205.074 233.685 205.365 233.919C205.657 234.153 205.045 233.656 205.074 233.685C204.739 233.408 204.419 233.116 204.098 232.809C203.429 232.18 202.817 231.508 202.22 230.807C201.623 230.105 201.914 230.441 201.768 230.251C201.623 230.061 201.463 229.857 201.739 230.222C201.448 229.842 201.171 229.448 200.895 229.053C200.385 228.323 199.919 227.577 199.467 226.817C198.565 225.298 197.734 223.734 196.977 222.141C196.22 220.549 196.22 220.549 195.87 219.745C195.521 218.941 195.681 219.307 195.579 219.087C195.375 218.62 195.521 218.956 195.579 219.058C195.361 218.547 195.157 218.021 194.953 217.509C192.39 210.934 190.759 204.051 189.652 197.095C189.521 196.262 189.39 195.43 189.273 194.597C189.157 193.764 189.157 193.72 189.084 193.281C189.011 192.843 189.172 193.91 189.07 193.135C188.968 192.361 188.982 192.492 188.953 192.171C188.735 190.403 188.531 188.635 188.356 186.867C187.992 183.301 187.701 179.721 187.409 176.141C186.274 161.616 185.414 146.842 181.22 132.8C180.711 131.105 180.157 129.424 179.545 127.758C179.079 126.472 177.74 125.464 176.327 125.917C175.075 126.326 173.997 127.773 174.492 129.147C177.012 136.044 178.613 143.248 179.691 150.51C179.764 150.992 179.837 151.475 179.895 151.957C179.953 152.439 179.968 152.439 179.997 152.688C179.982 152.585 179.939 152.191 179.997 152.717C180.128 153.681 180.245 154.66 180.361 155.625C180.579 157.495 180.769 159.351 180.944 161.221C181.293 164.933 181.584 168.645 181.876 172.356C183.011 187.056 184.031 202.093 188.88 216.121C190.118 219.687 191.589 223.179 193.322 226.525C195.055 229.872 197.108 233.13 199.744 235.848C202.38 238.566 205.817 240.787 209.603 241.605C213.448 242.438 217.642 242.015 220.948 239.735C227.341 235.322 229.38 226.511 229.088 219.16C228.797 211.81 228.899 214.689 228.797 212.439C228.491 205.205 228.171 197.972 227.865 190.739C227.865 190.593 227.865 190.432 227.85 190.286C226.132 190.52 224.414 190.753 222.695 190.987C224.53 198.396 226.351 205.804 228.185 213.198C229.787 219.672 231.215 226.525 235.03 232.136C238.583 237.353 244.569 241.591 251.107 241.24C257.5 240.904 262.656 236.243 265.117 230.529C268 223.836 267.694 216.326 267.724 209.18C267.738 202.005 267.651 194.83 267.418 187.656C266.937 173.131 265.816 158.635 263.806 144.241C261.826 130.053 258.899 115.966 254.748 102.245C254.238 100.579 253.714 98.913 253.175 97.2618C252.636 95.6105 251.34 94.9676 249.957 95.4206C248.661 95.8443 247.671 97.2618 248.122 98.65Z" fill="#40396B"/>
<path d="M185.895 193.325C179.065 193.486 172.191 193.647 165.405 192.77C164.881 192.697 166.017 192.858 165.128 192.726C164.24 192.595 164.75 192.668 164.575 192.639C164.196 192.58 163.832 192.522 163.454 192.463C162.609 192.317 161.779 192.156 160.949 191.981C159.551 191.674 158.182 191.309 156.813 190.885C155.444 190.461 155.531 190.476 154.905 190.242C154.279 190.008 154.235 189.994 153.9 189.862C153.565 189.731 153.609 189.745 153.463 189.687C153.318 189.628 152.706 189.365 153.216 189.584C151.905 189.029 150.638 188.401 149.4 187.699C148.031 186.925 146.721 186.063 145.468 185.113C145.862 185.405 145.454 185.098 145.352 185.011C145.206 184.894 145.046 184.762 144.9 184.631C144.566 184.353 144.245 184.075 143.925 183.783C143.313 183.228 142.731 182.643 142.163 182.044C141.231 181.036 139.396 181.021 138.449 182.044C137.459 183.126 137.444 184.689 138.449 185.771C147.522 195.517 161.24 198.294 173.997 198.659C177.958 198.776 181.934 198.674 185.895 198.586C187.264 198.557 188.574 197.402 188.516 195.956C188.458 194.509 187.366 193.296 185.895 193.325Z" fill="#40396B"/>
<path d="M196.424 224.085C182.065 223.5 167.895 226.569 153.609 227.431C150.114 227.65 146.604 227.723 143.109 227.563C139.614 227.402 139.57 227.344 137.823 227.124C137.663 227.11 137.488 227.081 137.328 227.066C137.896 227.139 137.08 227.022 137.022 227.022C136.643 226.964 136.279 226.905 135.901 226.847C135.027 226.701 134.168 226.54 133.308 226.35C131.575 225.97 129.857 225.517 128.182 224.962C127.41 224.713 126.653 224.436 125.896 224.143C125.692 224.07 125.503 223.983 125.299 223.91C125.343 223.924 124.556 223.603 124.906 223.749C125.255 223.895 124.527 223.588 124.556 223.603C124.338 223.515 124.134 223.413 123.915 223.31C121.003 221.981 118.236 220.329 115.673 218.415C115.702 218.43 115.09 217.962 115.382 218.196C115.673 218.43 115.076 217.948 115.09 217.962C114.784 217.714 114.479 217.465 114.187 217.217C113.532 216.662 112.891 216.092 112.265 215.507C111.129 214.441 110.052 213.301 109.018 212.132C108.508 211.547 108.013 210.934 107.532 210.32C107.823 210.685 107.561 210.364 107.518 210.291C107.372 210.101 107.241 209.911 107.095 209.721C106.848 209.37 106.6 209.019 106.353 208.669C105.464 207.353 104.634 206.009 103.877 204.606C103.12 203.203 103.163 203.247 102.828 202.546C102.493 201.844 102.508 201.844 102.348 201.494C102.188 201.143 102.217 201.216 102.158 201.07C102.1 200.924 102.042 200.792 101.969 200.646C102.071 200.88 102.086 200.924 102.013 200.749C101.445 199.273 100.891 197.811 100.425 196.292C99.9595 194.787 99.5808 193.252 99.2604 191.703C98.9401 190.154 98.9692 190.257 98.8527 189.541C98.7362 188.825 98.7216 188.781 98.6779 188.386C98.6342 187.992 98.5614 187.539 98.6488 188.167C98.6197 187.933 98.5906 187.699 98.5614 187.48C98.1828 184.295 98.0663 181.095 98.1828 177.894C98.2411 176.287 98.3576 174.68 98.5323 173.087C98.7071 171.494 98.6051 172.385 98.6488 172.035C98.6925 171.684 98.7653 171.173 98.6779 171.801C98.7071 171.64 98.7216 171.494 98.7507 171.333C98.8818 170.471 99.0129 169.624 99.1731 168.776C99.7556 165.62 100.542 162.493 101.532 159.439C102.042 157.86 102.624 156.297 103.251 154.763C103.877 153.228 103.411 154.383 103.484 154.193C103.309 154.602 103.484 154.207 103.513 154.134C103.673 153.754 103.833 153.374 104.008 152.994C104.387 152.161 104.765 151.329 105.158 150.51C108.217 144.241 111.988 138.338 116.095 132.712C116.605 132.011 117.115 131.324 117.639 130.637C118.163 129.95 118.629 129.337 118.949 128.913C120.056 127.495 121.178 126.078 122.313 124.69C124.498 122.016 126.741 119.385 129.012 116.784C130.09 115.557 131.182 114.329 132.26 113.102C133.338 111.874 133.338 110.384 132.26 109.376C131.182 108.367 129.522 108.28 128.546 109.376C119.008 120.072 109.6 131.192 102.683 143.832C96.1294 155.815 92.3285 169.302 92.9402 183.038C93.5372 196.54 98.5323 209.75 108.435 219.131C113.474 223.895 119.474 227.504 126.027 229.769C132.872 232.136 140.197 232.926 147.405 232.882C161.997 232.794 176.356 229.521 190.934 229.258C192.754 229.229 194.574 229.258 196.38 229.316C198.186 229.375 199.06 228.074 199.001 226.686C198.943 225.298 197.851 224.114 196.38 224.056L196.424 224.085Z" fill="#40396B"/>
<path d="M94.9644 192.975C94.2654 194.173 93.5227 195.356 92.7363 196.496C91.9499 197.636 91.9208 197.665 91.4839 198.235C91.047 198.805 91.2946 198.484 91.1926 198.615C90.7266 199.229 91.3819 198.381 91.0907 198.747C90.7994 199.112 90.5955 199.375 90.3334 199.696C88.4402 202.034 86.3869 204.226 84.1879 206.257C83.0957 207.266 81.9743 208.245 80.8093 209.18C80.6928 209.268 80.0084 209.808 80.3724 209.531C80.0812 209.75 79.7899 209.984 79.4841 210.203C78.8579 210.67 78.2317 211.109 77.5764 211.547C75.2026 213.155 72.6978 214.543 70.0765 215.712C67.4552 216.881 70.3823 215.595 69.96 215.77C69.5376 215.946 69.6687 215.887 69.5377 215.946C69.2173 216.077 68.8969 216.194 68.5765 216.311C67.8047 216.603 67.0183 216.852 66.261 217.202C64.63 217.948 63.2902 219.423 63.2319 221.294C63.1154 225.239 67.7901 226.569 70.8337 227.314C74.0084 228.089 77.3433 228.366 80.6054 228.045C83.8675 227.723 86.9403 226.847 90.0276 225.78C93.1149 224.713 96.7702 223.267 100.192 222.127C101.838 221.586 103.513 221.075 105.202 220.68C106.032 220.49 106.862 220.315 107.707 220.169C107.911 220.139 108.129 220.11 108.333 220.066C108.522 220.037 108.493 220.037 108.26 220.066C108.391 220.052 108.508 220.037 108.639 220.023C109.09 219.964 109.556 219.935 110.008 219.906C111.377 219.803 112.702 218.766 112.629 217.275C112.556 215.785 111.479 214.543 110.008 214.645C103.804 215.084 97.9935 217.29 92.2266 219.423C89.4451 220.446 86.6636 221.484 83.7947 222.214C80.9258 222.945 82.353 222.551 81.6248 222.667C81.5083 222.682 80.9549 222.77 81.4209 222.711C81.2462 222.741 81.0714 222.755 80.8967 222.77C80.5035 222.814 80.1103 222.843 79.7317 222.872C78.2171 222.974 76.688 222.945 75.1735 222.784C73.6589 222.624 74.824 222.741 74.6492 222.726C75.0861 222.784 74.6492 222.726 74.5764 222.726C74.2269 222.667 73.8919 222.609 73.5424 222.551C72.7706 222.404 72.0133 222.214 71.2561 222.01C70.4988 221.791 69.7707 221.528 69.028 221.265C68.2852 221.002 68.5328 221.002 69.028 221.265C68.9114 221.192 68.7804 221.148 68.6493 221.075C68.5182 221.002 68.4163 220.929 68.2852 220.856C68.6348 221.045 68.4017 220.943 68.1979 220.753C68.2561 220.812 68.5182 221.206 68.2852 220.812C68.4017 221.002 68.4746 221.177 68.4891 221.411C68.5037 221.645 68.4163 221.835 68.3144 222.039C68.3726 221.922 68.6056 221.63 68.227 222.141C68.46 221.82 68.2561 222.127 68.1396 222.185C68.2561 222.127 68.3581 222.039 68.4746 221.981C68.5911 221.922 68.7221 221.864 68.8386 221.805C68.3289 222.098 68.8095 221.82 68.9551 221.776C70.3532 221.279 71.7221 220.753 73.0764 220.139C78.3336 217.787 83.1102 214.367 87.3772 210.51C92.1101 206.214 96.3042 201.187 99.508 195.649C100.192 194.465 99.8138 192.712 98.5614 192.054C97.309 191.382 95.7071 191.733 94.979 193.004L94.9644 192.975Z" fill="#40396B"/>
<path d="M132.944 83.409C132.944 83.409 105.683 101.28 89.0956 103.75C72.9308 106.161 55.5282 103.779 40.9944 111.348C32.3587 115.849 25.4122 123.623 16.1648 126.662C11.3882 128.241 5.78145 128.694 2.5485 132.61C-0.742708 136.599 -0.160194 142.488 0.626201 147.646C1.74754 154.996 3.04364 162.668 7.38337 168.674C13.9658 177.763 26.286 180.905 37.2372 179.37C47.4312 177.938 56.8388 173.145 66.0134 168.44C79.8773 161.324 93.7266 154.193 107.59 147.076C117.027 142.225 126.595 137.286 134.488 130.111C142.381 122.936 148.104 110.267 148.73 99.4829C148.73 99.4829 135.915 96.6773 132.959 83.409H132.944Z" fill="#40396B"/>
<path d="M247.845 80.4426C248.005 79.6828 248.355 79.1713 248.908 78.7622C249.462 78.353 250.467 77.9292 251.326 77.6954C253.19 77.1986 254.835 76.8917 256.758 77.0232C258.68 77.1548 259.685 77.71 260.602 78.9521C261.097 79.6097 261.534 80.5157 261.811 81.1878C262.088 81.86 262.175 82.0792 262.335 82.5322C262.496 82.9852 262.743 83.4236 262.656 83.8181C262.452 84.841 262.947 85.8931 263.996 86.1854C264.942 86.4484 266.165 85.8639 266.355 84.841C266.661 83.2336 266.18 81.8454 265.583 80.3695C265.117 79.2005 264.622 78.0315 263.894 76.994C262.277 74.6852 259.947 73.4724 257.18 73.1801C254.748 72.9317 252.127 73.3701 249.797 74.0861C247.219 74.8752 244.7 76.5849 244.103 79.4051C243.884 80.428 244.408 81.4947 245.442 81.7724C246.404 82.0354 247.583 81.4509 247.802 80.428L247.845 80.4426Z" fill="#40396B"/>
</g>
</g>
<defs>
<clipPath id="clip0_1162_4684">
<rect width="286" height="242" fill="white"/>
</clipPath>
</defs>
</svg>
