<?xml version="1.0" encoding="UTF-8"?>
<svg id="Layer_2" data-name="Layer 2" xmlns="http://www.w3.org/2000/svg" viewBox="0 0 1010.77 1248.41">
  <defs>
    <style>
      .cls-1, .cls-2 {
        opacity: .35;
      }

      .cls-3, .cls-2 {
        fill: #40396b;
        stroke-width: 0px;
      }
    </style>
  </defs>
  <g id="Layer_2-2" data-name="Layer 2">
    <g class="cls-1">
      <path class="cls-3" d="m1009.11,805.18c-3.7-53.63-23.52-95.37-58.91-124.05-30.07-24.37-66.33-35.05-97.36-39.39,12.07-29.99-12.9-88.23-12.9-88.23-25.15-35.06-76.93-16.37-89.52-11.13-13.68-14.42-29.61-26.6-47.47-36.16-45.41-24.33-142.39-39.96-235.86-38.04-65.75,1.36-183.24,12.62-231.35,72.76-35.53,44.41-108.74,155.61-164.83,279.96-30.65,67.94-51.66,129.87-62.44,184.06-13.16,66.14-10.96,120.9,6.54,162.76,21.9,52.37,60.12,80.68,107.24,80.68,9.13,0,18.6-1.07,28.35-3.22,43.59-9.66,88.44-40.51,123.03-84.64,36.36-46.38,55.29-99.19,53.31-148.7-.38-9.47-8.37-16.84-17.84-16.46-9.47.38-16.84,8.37-16.47,17.84,1.63,40.77-15.14,86.75-46.02,126.14-29.34,37.42-68.01,64.45-103.44,72.3-43.45,9.63-76.82-10.15-96.49-57.18-27.88-66.67-8.68-177.14,55.52-319.46,17.28-38.31,36.19-75.29,55.06-109.33,180.98,101.84,396.36,46.98,485.26,30.39,89.34-16.68,94.11-89.34,115.41-106.15,3.07-2.42,5.9-3.73,8.65-4.25,1.7,8.12,2.1,13.17,2.11,13.25.32,4.75,2.61,9.16,6.3,12.16,3.69,3.01,8.48,4.34,13.2,3.7.85-.12,86-11.23,140.55,33.12,27.6,22.44,43.12,55.96,46.13,99.63,9.05,131.19-22.83,177.71-43.72,184.89-17.77,3.08-236.81,40.86-430.41,66.95-9.4,1.27-15.99,9.91-14.72,19.3,1.27,9.4,9.91,15.98,19.3,14.72,201.6-27.17,430.57-66.95,432.86-67.35.66-.12,1.32-.27,1.96-.46,13.22-3.95,37.86-17.2,54.29-61.59,14.34-38.75,19.28-92.18,14.68-158.82Zm-194.94-245.71c23.07,3.42,38.32,65.29,7.58,79.7-5.76-.16-11.05-.13-15.75,0-2.06-.77-4.19-1.77-6.36-2.98-2.19-9.83-5.8-22.47-11.69-36.29-4.05-9.49-8.75-18.51-14.05-27.04,9.76-8.67,25.9-15.51,40.27-13.38Zm-617.45,98.9c26.27-42.44,49.95-76.12,65.83-95.97,14.57-18.22,42.09-33.33,79.57-43.69,34.8-9.62,78.26-15.22,125.68-16.2,86.77-1.8,178.85,12.5,218.94,33.97,10.53,5.64,20.13,12.29,28.82,19.88-242.14,93.2-451.1,101.9-518.84,102Zm485.4,43.6c-46.49,13.13-68.71,35.43-89.65-59.58-2.87-13.02,81.06-51,109.51-38.11,26.15,11.84,28.32,84.09-19.86,97.7Z"/>
      <path class="cls-3" d="m866.56,801.03c8.63-.86,17.45-1.78,25.31-5.45,16.45-7.69,25.59-26.53,26.01-44.69.3-12.84-6.56-28.56-19.4-28.46l-19.03-2.51c-36.67.45-73.34.89-110.01,1.34-8.23.1-16.75.27-24.17,3.82-17.62,8.45-21.73,32.37-17.07,51.35,1.03,4.18,2.38,8.34,4.68,11.98,3.04,4.82,7.61,8.51,12.56,11.33,19.26,10.98,42.97,9.1,65.03,6.89.54-.05,1.08-.11,1.63-.16l2.67,66.27c-10.69-.9-21.5-.73-32.26.63-5.89.74-11,4.52-11,11,0,5.37,5.06,11.75,11,11,38.37-4.84,78.17,5.79,108.03,30.72,4.56,3.81,11.09,4.47,15.56,0,3.91-3.91,4.58-11.73,0-15.56-16.71-13.96-36.08-24.49-56.69-30.96l-3.08-76.53c6.75-.67,13.5-1.35,20.25-2.03Z"/>
    </g>
    <g class="cls-1">
      <path class="cls-3" d="m65.42,311.42c-1.96-2.27-1.8-5.07-1.14-8.14,1.17-5.45,3.86-10.37,6.81-15.04,5.72-9.05,12.66-17.56,20.13-25.21,12.94-13.26,32.95-26.29,49.83-13.55,6.5,4.91,11.05,13.64,11.27,21.36.27,9.5-5.62,18.3-11.33,26.34-7.31,10.29-14.52,20.21-18.12,32.51s-4.32,26.23-3.71,39.21c.68,14.47,3.67,29.5,12.55,41.3s21.92,19.74,36.82,19.43,14.19-22.3,0-22c-10.58.22-19.36-8.03-23.3-17.72-4.85-11.92-4.72-25.73-3.88-38.35s4.98-23.88,12.41-34.58,15.11-20.08,18.71-32.3c7.31-24.82-8.2-52.16-32.43-60.18-25.28-8.38-49.87,7.41-66.51,25.22-17.4,18.63-45.27,52.29-23.65,77.26,3.89,4.49,11.57,3.99,15.56,0,4.46-4.46,3.9-11.05,0-15.56h0Z"/>
    </g>
    <g class="cls-1">
      <path class="cls-3" d="m775.62,238.07c.03-.11,1.38-3.34.5-1.67.1-.18,2.1-2.73.82-1.32,1.58-1.73,1.42-1.55,4.04-2.88,2.09-1.06,8.5-2.52,11.14-2.77,10.15-.95,20.67-.11,30.76,1.12,8.36,1.02,19.69,3.51,27.15,7.16,8.07,3.95,14.65,9.4,17.62,16.98,3.15,8.04,1.91,16.45-2.31,23.74-5.06,8.75-12.92,12.92-23.66,13.61-14,.91-27.88-1.41-41.8,1.26s-26.91,10.1-38.4,18.13c-12.12,8.47-23.55,18.73-29.53,32.54s-6.42,31.22,2.64,44.18c3.4,4.86,9.63,7.12,15.05,3.95,4.81-2.81,7.37-10.16,3.95-15.05-16.22-23.21,15.38-45.72,32.84-55.29,6.3-3.46,13.02-6.27,20.17-7.4,6.89-1.09,14.03-.56,20.96-.33,14.4.49,30.04.08,42.22-8.67,20.54-14.75,28.22-43.99,14.61-66.02-13.06-21.15-38.34-28.02-61.51-30.8s-60.84-4.92-68.48,23.68c-3.66,13.69,17.56,19.54,21.21,5.85h0Z"/>
    </g>
    <path class="cls-2" d="m467.68,351.7c-.44-.18-.9-.3-1.35-.39-2.67-3.52-7.43-5.66-11.75-4.14-7.66,2.69-14.4,6.03-19.14,12.83-3.63,5.22-5.56,12.04-5.24,18.4.73,14.6,11.59,25.74,26.15,26.87,13.2,1.03,26.63-7.3,29.28-20.75,2.82-14.25-4.68-27.48-17.96-32.82Zm-3.5,28.12c-.62,2.47-3.63,4.03-6.97,3.54-3.38-.51-5.08-2.95-5.04-6.2.05-3.44,1.44-5.58,4.84-7.34,1.33,1.3,2.98,2.36,4.82,3.1-.2-.08,1.52,1.7,1.74,2.24,0,.01.58,2.22.67,2.17.04.64.06,1.28.04,1.92.23-.96.2-.77-.1.57Z"/>
    <g class="cls-1">
      <path class="cls-3" d="m407.69,81.26c-.04-1.9.02-3.76.11-5.66.03-.69.53-2.92-.04-.05.14-.68.25-1.36.39-2.04.38-1.81.85-3.59,1.43-5.34.21-.66.45-1.31.68-1.96,1.43-4.08-1.37,2.45.62-1.4,1.51-2.92,3.17-5.68,4.99-8.4,1.64-2.44.56-.77.14-.26.6-.74,1.21-1.46,1.83-2.17,1.42-1.61,2.91-3.16,4.46-4.64,1.22-1.16,2.5-2.25,3.76-3.36,2.21-1.96.83-.69.29-.28.77-.58,1.57-1.15,2.36-1.7,3.19-2.21,6.55-4.2,10.02-5.94.87-.44,5.33-2.34,2.94-1.41,1.57-.61,3.16-1.19,4.76-1.71,4.55-1.48,9.25-2.53,13.97-3.29,2.78-.45,6.77-.73,10.69-.87,5.29-.19,10.58-.07,15.86.28,9.63.64,17.09,1.8,26.75,3.59,8.66,1.6,17.4,3.18,25.92,5.4,1.81.47,3.61.99,5.39,1.57.85.28,4.82,1.85,2.15.66,1.65.73,3.26,1.55,4.8,2.48.75.45,1.49.94,2.21,1.44-1.19-.83-1.07-1.04-.1.04.54.6,1.2,1.27,1.79,1.84-1.88-1.8-.53-.86-.12-.02.39.79.91,1.48,1.24,2.31-.44-1.1-.39-1.71-.09.57-.32-2.42.02,2-.04,2.82-.16,2.54.52-1.96-.14.53-.34,1.3-.69,2.56-1.1,3.84-.08.24-1.13,2.64-.31.84-.35.75-.73,1.49-1.12,2.22-1.03,1.96-2.18,3.86-3.39,5.71-2.74,4.16-3.35,4.85-6.54,8.73-11.12,13.49-23.75,25.62-36.32,37.72-12.36,11.9-24.77,23.83-35.7,37.09-12.57,15.25-22.65,31.81-31.31,49.55-4.86,9.96-10.61,20.35-13.09,31.21s-1.56,21.61,2.78,31.9c7.62,18.06,24.19,30.45,39.97,41.07,6.72,4.52,17.4,1.51,21.13-5.54,4.12-7.79,1.63-16.3-5.54-21.13-3.28-2.21-6.52-4.46-9.68-6.82,1.88,1.4-.15-.11-.45-.35-.78-.63-1.56-1.26-2.33-1.91-1.72-1.44-3.39-2.94-5.01-4.49-1.42-1.36-2.79-2.76-4.1-4.23-.65-.72-1.27-1.45-1.89-2.2-1.56-1.89,1.17,1.73-.18-.29-1.05-1.56-2.07-3.11-2.96-4.76-.2-.37-1.52-2.97-.72-1.26s-.57-1.63-.69-2c-.33-1.06-1.05-5.76-.82-2.65-.15-1.99-.26-4.03-.03-6.02-.09.8-.45,1.87.29-1.1.28-1.14.58-2.27.92-3.4.64-2.09,1.61-4.58,1.98-5.43,4.05-9.33,8.63-18.52,13.43-27.49,9.42-17.59,18.91-30.35,32.22-44.45,12.39-13.12,25.76-25.25,38.53-37.99s27.47-27.37,36.16-43.88c5.31-10.08,8.28-21.15,6.11-32.52-1.9-9.98-8.13-18.05-16.16-23.95-14.19-10.43-33.92-12.75-50.77-15.79-21.93-3.96-43.86-6.22-66.02-2.94-39.1,5.79-78.24,37.28-77.24,79.69.19,8.07,6.97,15.82,15.44,15.44s15.65-6.79,15.44-15.44h0Z"/>
    </g>
    <path class="cls-2" d="m710.66,418.43c-.12-.05-.24-.08-.36-.12-2.01-2.3-5.27-3.62-8.24-2.57-4.94,1.74-9.26,3.9-12.29,8.33-2.32,3.38-3.54,7.79-3.31,11.89.53,9.55,7.75,16.63,17.22,17.34,8.54.64,17.03-5.05,18.74-13.61,1.88-9.35-3.2-17.71-11.77-21.26Z"/>
    <path class="cls-2" d="m165.89,478.56c0,.13,0,.26.01.38-1.5,2.7-1.63,6.25.38,8.71,3.35,4.09,6.88,7.45,12.12,8.81,4.01,1.04,8.61.69,12.42-.93,8.89-3.78,13.14-13.06,10.56-22.3-2.32-8.33-10.64-14.43-19.35-13.13-9.52,1.42-15.72,9.11-16.15,18.46Z"/>
  </g>
</svg>