<?xml version="1.0" encoding="UTF-8"?><svg id="uuid-1b40011a-f056-4285-ba87-478eea50ef91" xmlns="http://www.w3.org/2000/svg" viewBox="0 0 994.3 767.7"><g id="uuid-c774de1d-8969-4b2f-a3c5-7d6f4505463b"><path d="m677.1,383.3c7-6.2,17.6-5.6,23.8,1.4,25.4,28.5,75.6,32.8,101.3,33l-3.4-84.7c-.5,0-1.1.1-1.6.2-21.7,2.2-45,4-64-6.8-4.9-2.8-9.4-6.4-12.4-11.1-2.3-3.6-3.6-7.7-4.6-11.8-4.6-18.7-.5-42.2,16.8-50.5,7.3-3.5,15.7-3.7,23.8-3.8,36.1-.4,72.1-.9,108.2-1.3l18.7,2.5c12.6,0,19.4,15.4,19.1,28-.4,17.9-9.4,36.4-25.6,44-7.7,3.6-16.4,4.5-24.9,5.4-6.6.7-13.3,1.3-19.9,2l3.5,86.3c38.5-5.5,58.7-29.3,59.7-30.6,5.8-7.2,16.4-8.4,23.7-2.6,7.3,5.8,8.5,16.4,2.7,23.7-1.4,1.8-35.8,43.8-100.9,44.4-1.3.1-7.6.6-17.2.6-30.4,0-93.3-5.1-128.3-44.3-6.2-7-5.6-17.6,1.4-23.8Z" fill="#40396b" stroke-width="0"/><path d="m992.7,331.7c-3.6-52.8-23.1-93.8-57.9-122-35.5-28.8-79.7-38.1-113.3-40.6,21.8-24.2-7.3-92-7.3-92-22.9-31.9-69-17-83.4-11.3-11.7-11-24.8-20.5-39.2-28.2C646.8,13.6,551.4-1.7,459.5.2c-64.7,1.3-180.3,12.4-227.6,71.6-34.9,43.7-107,153.1-162.2,275.4-30.1,66.8-50.8,127.8-61.4,181.1-12.9,65.1-10.8,118.9,6.4,160.1,21.5,51.5,59.2,79.4,105.5,79.4,9,0,18.3-1,27.9-3.2,42.9-9.5,87-39.8,121-83.3,35.8-45.6,54.4-97.6,52.4-146.3-.4-9.3-8.2-16.6-17.5-16.2-9.3.4-16.6,8.2-16.2,17.5,1.6,40.1-14.9,85.3-45.3,124.1-28.9,36.8-66.9,63.4-101.8,71.1-42.7,9.5-75.6-10-94.9-56.3-27.4-65.6-8.5-174.3,54.6-314.3,19.4-43.1,41-84.5,62.1-121.8h0c172.5,98.8,378.9,46.2,463.8,30.3,84.9-15.9,89.4-84.9,109.7-100.9,14.3-11.2,23.3,2.6,42.3,7.9,5.7,3.9,12.3,9.9,18.7,13,8.2,3.9,16.7,7.7,25.3,11.1,5.6,2.2,11.5,3.6,17.5,4.6,24.4,4,51.5,12.7,73.6,30.7,27.2,22.1,42.4,55,45.4,98,4,58.4.2,99.1-11.5,120.9-8.2,15.3-18.9,18.8-31.4,22.5-16.4,2.8-232.6,40.1-423.6,65.9-9.2,1.2-15.7,9.7-14.5,19,1.2,9.2,9.7,15.7,19,14.5,198.3-26.7,423.6-65.9,425.8-66.3.7-.1,1.3-.3,1.9-.5,14.9-4.4,37.4-11.2,52.5-39.3,15.1-28.2,20-72.4,15.4-139.1ZM200.1,176.7c23.2-36.8,43.9-66,58.2-83.9,14.3-17.9,41.4-32.8,78.3-43,34.2-9.5,77-15,123.6-15.9,85.4-1.8,175.9,12.3,215.4,33.4,7.2,3.9,13.8,8.1,19.8,12.6-233.1,89.6-433.8,96.9-495.2,96.7Zm464,41.4c-44.2,12.5-65.3,33.7-85.2-56.6-2.7-12.4,77-48.5,104.1-36.2,24.9,11.3,26.9,79.9-18.9,92.9Zm78.7-107.6c-1-12.6,25-31,46.8-27.8,22.6,3.3,37.3,65.8,4.4,76.9-14.6,4.9-48.9-22.3-51.1-49.1Z" fill="#40396b" stroke-width="0"/></g></svg>